<svg xmlns="http://www.w3.org/2000/svg" width="19" height="18" viewBox="0 0 19 18" fill="none">
    <path d="M2.375 9C2.375 5.64124 2.375 3.96187 3.41843 2.91843C4.46187 1.875 6.14124 1.875 9.5 1.875C12.8587 1.875 14.5381 1.875 15.5816 2.91843C16.625 3.96187 16.625 5.64124 16.625 9C16.625 12.3587 16.625 14.0381 15.5816 15.0816C14.5381 16.125 12.8587 16.125 9.5 16.125C6.14124 16.125 4.46187 16.125 3.41843 15.0816C2.375 14.0381 2.375 12.3587 2.375 9Z" stroke="white" stroke-width="1.2"/>
    <path d="M9.47765 12.779V7.49118M9.47765 7.49118C9.23307 7.48792 8.9918 7.656 8.81375 7.8612L7.62165 9.19823M9.47765 7.49118C9.71352 7.49432 9.95255 7.66155 10.1415 7.8612L11.3405 9.19823M12.4897 5.27893H6.48975" stroke="white" stroke-width="1.2" stroke-linecap="round"/>
</svg>
