<svg xmlns="http://www.w3.org/2000/svg" width="19" height="18" viewBox="0 0 19 18" fill="none">
    <path d="M8.75488 15.75H7.7041C5.01516 15.75 3.67069 15.75 2.83534 14.8987C2 14.0476 2 12.6775 2 9.9375C2 7.19746 2 5.82744 2.83534 4.97622C3.67069 4.125 5.01516 4.125 7.7041 4.125H10.5562C13.2451 4.125 14.5896 4.125 15.4249 4.97622C16.0676 5.63114 16.2158 6.59317 16.25 8.25" stroke="#00150B" stroke-width="1.2" stroke-linecap="round" stroke-linejoin="round"/>
    <path d="M14.6375 14.1375L13.625 13.4625V11.775M10.25 13.125C10.25 14.989 11.761 16.5 13.625 16.5C15.489 16.5 17 14.989 17 13.125C17 11.261 15.489 9.75 13.625 9.75C11.761 9.75 10.25 11.261 10.25 13.125Z" stroke="#00150B" stroke-width="1.2" stroke-linecap="round" stroke-linejoin="round"/>
    <path d="M12.5 4.125L12.4255 3.8932C12.0542 2.73817 11.8686 2.16065 11.4267 1.83032C10.9847 1.5 10.3978 1.5 9.2237 1.5H9.0263C7.85228 1.5 7.26527 1.5 6.82333 1.83032C6.3814 2.16065 6.19577 2.73817 5.8245 3.8932L5.75 4.125" stroke="#00150B" stroke-width="1.2" stroke-linecap="round" stroke-linejoin="round"/>
</svg>
