<svg width="31" height="30" viewBox="0 0 31 30" fill="none"
    xmlns="http://www.w3.org/2000/svg">
    <path d="M18.0488 19.2187C17.9936 20.6077 16.8362 21.787 15.2855 21.7491C14.9248 21.7402 14.4789 21.6145 13.5872 21.363C11.441 20.7576 9.57799 19.7402 9.131 17.4611C9.04883 17.0422 9.04883 16.5708 9.04883 15.628V14.372C9.04883 13.4292 9.04883 12.9578 9.131 12.5388C9.57799 10.2597 11.441 9.24237 13.5872 8.63702C14.4789 8.38548 14.9248 8.25971 15.2855 8.25089C16.8362 8.21296 17.9936 9.3923 18.0488 10.7813" stroke="#D51212" stroke-width="1.125" stroke-linecap="round"/>
    <path d="M22.5488 15H14.2988M22.5488 15C22.5488 14.4748 21.0531 13.4936 20.6738 13.125M22.5488 15C22.5488 15.5252 21.0531 16.5064 20.6738 16.875" stroke="#D51212" stroke-width="1.125" stroke-linecap="round" stroke-linejoin="round"/>
</svg>
