<svg width="148" height="30" viewBox="0 0 148 30" fill="none"
    xmlns="http://www.w3.org/2000/svg">
    <path d="M30 15C30 23.2843 23.2843 30 15 30C6.71573 30 0 23.2843 0 15C0 6.71573 6.71573 0 15 0C23.2843 0 30 6.71573 30 15Z" fill="#022213"/>
    <path d="M5.83333 19C5.59722 19 5.39931 18.9201 5.23958 18.7604C5.07986 18.6007 5 18.4028 5 18.1667V17.6875C5 17.0903 5.30556 16.6042 5.91667 16.2292C6.52778 15.8542 7.33333 15.6667 8.33333 15.6667C8.51389 15.6667 8.6875 15.6701 8.85417 15.6771C9.02083 15.684 9.18056 15.7014 9.33333 15.7292C9.13889 16.0208 8.99306 16.3264 8.89583 16.6458C8.79861 16.9653 8.75 17.2986 8.75 17.6458V19H5.83333ZM10.8333 19C10.5972 19 10.3993 18.9201 10.2396 18.7604C10.0799 18.6007 10 18.4028 10 18.1667V17.6458C10 17.2014 10.1215 16.7951 10.3646 16.4271C10.6076 16.059 10.9514 15.7361 11.3958 15.4583C11.8403 15.1806 12.3715 14.9722 12.9896 14.8333C13.6076 14.6944 14.2778 14.625 15 14.625C15.7361 14.625 16.4132 14.6944 17.0312 14.8333C17.6493 14.9722 18.1806 15.1806 18.625 15.4583C19.0694 15.7361 19.4097 16.059 19.6458 16.4271C19.8819 16.7951 20 17.2014 20 17.6458V18.1667C20 18.4028 19.9201 18.6007 19.7604 18.7604C19.6007 18.9201 19.4028 19 19.1667 19H10.8333ZM21.25 19V17.6458C21.25 17.2847 21.2049 16.9444 21.1146 16.625C21.0243 16.3056 20.8889 16.0069 20.7083 15.7292C20.8611 15.7014 21.0174 15.684 21.1771 15.6771C21.3368 15.6701 21.5 15.6667 21.6667 15.6667C22.6667 15.6667 23.4722 15.8507 24.0833 16.2188C24.6944 16.5868 25 17.0764 25 17.6875V18.1667C25 18.4028 24.9201 18.6007 24.7604 18.7604C24.6007 18.9201 24.4028 19 24.1667 19H21.25ZM8.33333 14.8333C7.875 14.8333 7.48264 14.6701 7.15625 14.3438C6.82986 14.0174 6.66667 13.625 6.66667 13.1667C6.66667 12.6944 6.82986 12.2986 7.15625 11.9792C7.48264 11.6597 7.875 11.5 8.33333 11.5C8.80556 11.5 9.20139 11.6597 9.52083 11.9792C9.84028 12.2986 10 12.6944 10 13.1667C10 13.625 9.84028 14.0174 9.52083 14.3438C9.20139 14.6701 8.80556 14.8333 8.33333 14.8333ZM21.6667 14.8333C21.2083 14.8333 20.816 14.6701 20.4896 14.3438C20.1632 14.0174 20 13.625 20 13.1667C20 12.6944 20.1632 12.2986 20.4896 11.9792C20.816 11.6597 21.2083 11.5 21.6667 11.5C22.1389 11.5 22.5347 11.6597 22.8542 11.9792C23.1736 12.2986 23.3333 12.6944 23.3333 13.1667C23.3333 13.625 23.1736 14.0174 22.8542 14.3438C22.5347 14.6701 22.1389 14.8333 21.6667 14.8333ZM15 14C14.3056 14 13.7153 13.7569 13.2292 13.2708C12.7431 12.7847 12.5 12.1944 12.5 11.5C12.5 10.7917 12.7431 10.1979 13.2292 9.71875C13.7153 9.23958 14.3056 9 15 9C15.7083 9 16.3021 9.23958 16.7812 9.71875C17.2604 10.1979 17.5 10.7917 17.5 11.5C17.5 12.1944 17.2604 12.7847 16.7812 13.2708C16.3021 13.7569 15.7083 14 15 14Z" fill="#A8DC2A"/>
    <path d="M47.2395 22.7835V10.0311H42V7H56.3112V10.0311H50.9851V22.7835H47.2395Z" fill="#022213"/>
    <path d="M62.0443 22.9783C57.8007 22.9783 55.0727 20.77 55.0727 17.046C55.0727 13.2355 57.844 10.9621 62.001 10.9621C66.4178 10.9621 68.9726 13.4953 68.6911 17.7605H58.7317C58.775 19.4926 60.0524 20.5318 62.1309 20.5318C63.6681 20.5318 64.9239 19.9472 65.227 19.0812H68.6695C68.3447 21.4195 65.6167 22.9783 62.0443 22.9783ZM61.9794 13.4303C60.1607 13.4303 58.9482 14.2747 58.6884 15.747H65.0754C64.9455 14.318 63.863 13.4303 61.9794 13.4303Z" fill="#022213"/>
    <path d="M75.589 23C72.1681 23 69.8731 20.6617 69.8731 16.9811C69.8731 13.3004 72.1681 10.9838 75.589 10.9838C77.819 10.9838 79.2696 11.8065 79.9408 12.9973H80.0924L80.2006 11.1786H83.6647V22.7835H80.0058V20.9215H79.8542C79.1397 22.1989 77.4942 23 75.589 23ZM76.7148 20.2287C78.7716 20.2287 79.9841 18.908 79.9841 17.2409V16.6779C79.9841 15.0541 78.7716 13.7551 76.7148 13.7551C74.8312 13.7551 73.5538 14.9026 73.5538 16.9811C73.5538 19.0379 74.8095 20.2287 76.7148 20.2287Z" fill="#022213"/>
    <path d="M119.789 22.7835V16.8078L113.056 7H117.321L121.608 13.6901H121.76L126.111 7H130.333L123.557 16.8078V22.7835H119.789Z" fill="#022213"/>
    <path d="M133.945 23C130.524 23 128.229 20.6617 128.229 16.9811C128.229 13.3004 130.524 10.9838 133.945 10.9838C136.175 10.9838 137.626 11.8065 138.297 12.9973H138.448L138.556 11.1786H142.021V22.7835H138.362V20.9215H138.21C137.496 22.1989 135.85 23 133.945 23ZM135.071 20.2287C137.128 20.2287 138.34 18.908 138.34 17.2409V16.6779C138.34 15.0541 137.128 13.7551 135.071 13.7551C133.187 13.7551 131.91 14.9026 131.91 16.9811C131.91 19.0379 133.165 20.2287 135.071 20.2287Z" fill="#022213"/>
    <path d="M85.8058 22.7835V11.1786H89.2916L89.4432 13.1489H89.638C90.3741 11.7415 91.8464 10.9621 93.7084 10.9621C95.7219 10.9621 97.2158 11.8498 97.8653 13.5169H98.0602C98.9479 11.7199 100.55 10.9621 102.564 10.9621C105.573 10.9621 107.348 12.6725 107.348 16.3532V22.7835H103.711V16.8295C103.711 14.9459 103.148 13.7334 101.265 13.7334C99.4675 13.7334 98.385 14.9892 98.385 16.7645V22.7835H94.7476V16.8728C94.7476 14.9459 94.1414 13.7334 92.3227 13.7334C90.4824 13.7334 89.4432 14.9892 89.4432 16.7645V22.7835H85.8058Z" fill="#022213"/>
    <path d="M144.162 22.7835V7H147.799V22.7835H144.162Z" fill="#022213"/>
</svg>
